<svg width="579" height="494" viewBox="0 0 579 494" fill="none" xmlns="http://www.w3.org/2000/svg">
<path d="M312.204 22.4108C365.869 22.4108 407.886 35.9192 440.408 58.1696C472.823 80.3461 494.712 110.454 509.469 141.997C538.732 204.545 540.885 274.825 540.885 307.622C540.885 384.383 464.934 476.411 307.733 476.411C246.84 476.411 191.823 467.198 149.865 441.234C106.891 414.641 79.6572 371.754 72.5334 309.555C65.7147 250.02 70.5359 178.602 105.307 121.422C140.891 62.9042 205.919 22.4108 312.204 22.4108Z" stroke="#FAFAFA" stroke-width="34"/>
<path d="M429.779 17.1654C421.91 17.7952 415.354 20.1445 409.861 22.6512C401.365 26.0211 394.663 29.1879 389.777 32.4267C385.768 35.0842 378.115 40.8822 377.229 50.9571C376.31 61.393 383.427 67.923 385.062 69.4518C386.308 70.6162 387.701 71.7473 388.386 72.315C389.285 73.0592 389.661 73.3929 389.88 73.6103C393.418 77.1219 397.104 80.2906 403.53 88.5782C410.118 97.0734 419.58 111.006 433.248 135.132C447.632 160.522 463.432 178.325 480.827 184.897C490.173 188.429 500.028 188.69 509.272 184.897C518.193 181.236 524.9 174.483 529.76 166.91L530.033 166.486L530.28 166.046C536.284 155.344 550.378 129.035 557.17 111.672C562.367 98.3879 562.888 85.3097 557.331 73.7372C551.985 62.6014 542.375 55.7479 533.237 51.5941L532.875 51.4293L532.506 51.2817C512.1 43.1353 467.713 25.5191 455.653 21.1389C446.416 17.7843 437.935 16.5128 429.779 17.1654Z" stroke="#FAFAFA" stroke-width="34"/>
<path d="M148.508 17.1654C156.378 17.7952 162.933 20.1445 168.427 22.6512C176.922 26.0211 183.624 29.1879 188.511 32.4267C192.52 35.0842 200.173 40.8822 201.059 50.9571C201.977 61.393 194.86 67.923 193.225 69.4518C191.98 70.6162 190.586 71.7473 189.901 72.315C189.003 73.0592 188.627 73.3929 188.408 73.6103C184.87 77.1219 181.183 80.2906 174.757 88.5782C168.17 97.0734 158.707 111.006 145.04 135.132C130.656 160.522 114.855 178.325 97.4606 184.897C88.1151 188.429 78.2597 188.69 69.0152 184.897C60.095 181.236 53.3881 174.483 48.5272 166.91L48.2547 166.486L48.0081 166.046C42.0035 155.344 27.9095 129.035 21.1171 111.672C15.9207 98.3879 15.3999 85.3097 20.9563 73.7372C26.303 62.6014 35.9121 55.7479 45.0501 51.5941L45.4122 51.4293L45.7817 51.2817C66.1878 43.1353 110.574 25.5191 122.634 21.1389C131.871 17.7843 140.352 16.5128 148.508 17.1654Z" stroke="#FAFAFA" stroke-width="34"/>
<path d="M523.885 307.621C523.885 372.463 458.294 459.411 307.732 459.411C188.475 459.411 102.636 422.986 89.4226 307.621C76.2094 192.257 109.468 39.4108 312.204 39.4108C514.941 39.4108 523.885 242.779 523.885 307.621Z" fill="#FAFAFA" stroke="#100F0F" stroke-width="28"/>
<path d="M449.85 37.118C435.176 31.7886 425.723 34.0386 416.535 38.2907C382.991 51.5294 395.313 55.0505 401.856 61.5456C408.4 68.0408 420.208 77.6228 448.039 126.752C475.871 175.881 501.193 179.945 515.454 157.727C521.448 147.044 535.017 121.638 541.338 105.478C549.24 85.2776 540.262 73.461 526.203 67.0702C505.643 58.8626 461.59 41.3815 449.85 37.118Z" fill="#100F0F" stroke="#100F0F" stroke-width="20"/>
<path d="M128.437 37.118C143.111 31.7886 152.565 34.0386 161.753 38.2907C195.297 51.5294 182.974 55.0505 176.431 61.5456C169.888 68.0408 158.08 77.6228 130.248 126.752C102.417 175.881 77.0945 179.945 62.8339 157.727C56.8397 147.044 43.2709 121.638 36.9492 105.478C29.0471 85.2776 38.0258 73.461 52.0849 67.0702C72.6443 58.8626 116.698 41.3815 128.437 37.118Z" fill="#100F0F" stroke="#100F0F" stroke-width="20"/>
<path d="M497.885 177.411C497.885 227.116 457.591 267.411 407.885 267.411C358.179 267.411 317.885 227.116 317.885 177.411C317.885 127.705 358.179 87.4108 407.885 87.4108C457.591 87.4108 497.885 127.705 497.885 177.411Z" fill="#FAFAFA" stroke="#100F0F" stroke-width="16"/>
<ellipse cx="429.473" cy="143.9" rx="38.7174" ry="36.9055" transform="rotate(46.2858 429.473 143.9)" fill="#100F0F"/>
<ellipse cx="443.131" cy="129.876" rx="5.85196" ry="6.21784" transform="rotate(-35.7737 443.131 129.876)" fill="#FAFAFA"/>
<path d="M282.885 167.411C282.885 213.803 245.277 251.411 198.885 251.411C152.493 251.411 114.885 213.803 114.885 167.411C114.885 121.019 152.493 83.4108 198.885 83.4108C245.277 83.4108 282.885 121.019 282.885 167.411Z" fill="#FAFAFA" stroke="#100F0F" stroke-width="16"/>
<ellipse cx="182.377" cy="140.434" rx="38.8328" ry="36.5044" transform="rotate(-28.7142 182.377 140.434)" fill="#100F0F"/>
<ellipse cx="172.885" cy="120.884" rx="6.30319" ry="6.4457" transform="rotate(48.988 172.885 120.884)" fill="#FAFAFA"/>
<path d="M297.884 194.411C380.992 200.628 425.112 263.314 406.766 304.099C392.576 335.647 353.802 329.056 337.899 319.784C330.316 333.046 308.063 334.98 297.884 334.29C287.704 334.98 265.452 333.046 257.87 319.784C241.967 329.056 203.194 335.646 189.004 304.099C170.658 263.314 214.777 200.628 297.884 194.411Z" fill="#100F0F"/>
<path d="M345.625 269.977C350.752 269.76 359.561 270.053 367.465 271.154C371.402 271.703 375.364 272.485 378.613 273.608C380.234 274.168 381.88 274.881 383.311 275.821C384.601 276.669 386.138 277.978 387.056 279.932L387.232 280.332L387.777 281.684C399.064 309.98 400.207 331.306 392.264 345.527C383.932 360.445 367.069 365.228 348.56 363.606C328.345 361.835 315.856 347.701 308.714 333.758C305.117 326.736 302.733 319.521 301.28 313.388C299.854 307.366 299.233 301.994 299.417 298.674C299.76 292.497 301.542 288.12 305.313 284.69C306.995 283.16 308.91 281.97 310.76 280.922C311.696 280.391 312.692 279.855 313.683 279.321C314.69 278.778 315.721 278.223 316.807 277.612C322.138 274.614 328.494 272.926 334.681 273.781C336.177 273.988 337.642 274.344 339.057 274.851L336.35 270.37L345.625 269.977Z" fill="#FAFAFA" stroke="#100F0F" stroke-width="11"/>
</svg>
