<svg viewBox="0 0 16 16" fill="none" xmlns="http://www.w3.org/2000/svg">
  <path fill-rule="evenodd" clip-rule="evenodd"
    d="M10.886 2.71065C11.322 2.37158 11.9503 2.45011 12.2893 2.88606L15.7893 7.38606C16.0702 7.74717 16.0702 8.25283 15.7893 8.61394L12.2893 13.1139C11.9503 13.5499 11.322 13.6284 10.886 13.2894C10.4501 12.9503 10.3716 12.322 10.7106 11.8861L13.7331 8L10.7106 4.11394C10.3716 3.67799 10.4501 3.04972 10.886 2.71065Z"
    fill="currentColor" />
  <path fill-rule="evenodd" clip-rule="evenodd"
    d="M5.11396 13.2894C4.67801 13.6284 4.04973 13.5499 3.71066 13.1139L0.210663 8.61394C-0.0702004 8.25283 -0.0702004 7.74717 0.210663 7.38606L3.71066 2.88606C4.04973 2.45011 4.67801 2.37158 5.11396 2.71065C5.5499 3.04972 5.62844 3.67799 5.28937 4.11394L2.26688 8L5.28937 11.8861C5.62844 12.322 5.5499 12.9503 5.11396 13.2894Z"
    fill="currentColor" />
</svg>
