<svg viewBox="0 0 16 16" fill="none" xmlns="http://www.w3.org/2000/svg">
  <path
    d="M5.07286e-09 5.20067L7.74836 9.2025C7.82609 9.24263 7.9124 9.26359 8 9.26359C8.0876 9.26359 8.17391 9.24263 8.25164 9.2025L16 5.20139V12.1528C16 12.7523 15.7691 13.3292 15.3544 13.7649C14.9398 14.2007 14.373 14.4624 13.7702 14.4964L13.6364 14.5H2.36364C1.7599 14.5 1.17903 14.2707 0.740196 13.8589C0.301358 13.4472 0.0378172 12.8842 0.00363645 12.2857L5.07286e-09 12.1528V5.20067ZM2.36364 1.5H13.6364C14.2401 1.49996 14.821 1.72934 15.2598 2.1411C15.6986 2.55285 15.9622 3.11575 15.9964 3.71433L16 3.84722V3.98011L8 8.11122L5.07286e-09 3.98011V3.84722C-3.95249e-05 3.24768 0.230948 2.67085 0.645579 2.23506C1.06021 1.79927 1.62705 1.53755 2.22982 1.50361L2.36364 1.5H13.6364H2.36364Z"
    fill="currentColor" />
</svg>
