<svg viewBox="0 0 16 16" fill="none" xmlns="http://www.w3.org/2000/svg">
  <path
    d="M16 3.04204C15.4116 3.30262 14.7795 3.47869 14.115 3.55828C14.8007 3.14824 15.3136 2.50289 15.5582 1.74264C14.914 2.12506 14.209 2.39424 13.4738 2.53848C12.9794 2.01087 12.3245 1.66117 11.6109 1.54366C10.8973 1.42615 10.1648 1.54741 9.52717 1.8886C8.88955 2.2298 8.38247 2.77185 8.08467 3.43059C7.78686 4.08934 7.71499 4.82792 7.88021 5.53167C6.57496 5.46617 5.29807 5.1271 4.13242 4.53646C2.96677 3.94581 1.93841 3.1168 1.11407 2.10323C0.832203 2.58918 0.670131 3.15261 0.670131 3.75266C0.669817 4.29284 0.802912 4.82474 1.05761 5.30118C1.3123 5.77762 1.68073 6.18386 2.13019 6.48386C1.60893 6.46728 1.09918 6.32651 0.643354 6.07327V6.11552C0.643302 6.87315 0.905511 7.60746 1.38549 8.19385C1.86547 8.78025 2.53365 9.18262 3.27667 9.33268C2.79312 9.46348 2.28615 9.48274 1.79406 9.38902C2.0037 10.0409 2.41205 10.611 2.96194 11.0194C3.51184 11.4278 4.17575 11.6541 4.86074 11.6667C3.69794 12.579 2.26188 13.0739 0.783581 13.0717C0.521717 13.0718 0.260073 13.0565 0 13.0259C1.50056 13.9902 3.24731 14.502 5.03127 14.5C11.0702 14.5 14.3715 9.501 14.3715 5.16545C14.3715 5.02459 14.368 4.88232 14.3617 4.74147C15.0038 4.27733 15.5581 3.70258 15.9986 3.04415L16 3.04204V3.04204Z"
    fill="currentColor" />
</svg>
